# xmcd
#
# Track frame offsets:
#	150
#	27698
#	51592
#	78617
#	101805
#	119961
#	144883
#	171535
#	193280
#
# Disc length: 2944 seconds
#
# Revision: 0
# Processed by: cddbd v1.5.2PL0 Copyright (c) Steve Scherf et al.
# Submitted via: EasyCDDAExtractor 12.0.1.1
#
DISCID=940b7e09
DTITLE=Parvez - Hridoy Khan Featuring Parvez "Poth"
DYEAR=2009
DGENRE=Bangla Band
TTITLE0=Brishtite
TTITLE1=Poth
TTITLE2=Kotha
TTITLE3=Koto Je Bhalobashi
TTITLE4=Kothay
TTITLE5=Abhabe Shudhu
TTITLE6=Priyo Desh
TTITLE7=Hay Chokh
TTITLE8=Brishtite OST
EXTD=
EXTT0=
EXTT1=
EXTT2=
EXTT3=
EXTT4=
EXTT5=
EXTT6=
EXTT7=
EXTT8=
PLAYORDER=
